HIERARCHY
ROOT Hips
{
	OFFSET 0.000000 0.000000 0.000000
	CHANNELS 6 Xposition Yposition Zposition Zrotation Yrotation Xrotation 
	JOINT LHipJoint
	{
		OFFSET 0.000000 0.000000 0.000000
		CHANNELS 3 Zrotation Yrotation Xrotation
		JOINT LeftUpLeg
		{
			OFFSET 1.363060 -1.794630 0.839290
			CHANNELS 3 Zrotation Yrotation Xrotation
			JOINT LeftLeg
			{
				OFFSET 2.448110 -6.726130 0.000000
				CHANNELS 3 Zrotation Yrotation Xrotation
				JOINT LeftFoot
				{
					OFFSET 2.562200 -7.039590 0.000000
					CHANNELS 3 Zrotation Yrotation Xrotation
					JOINT LeftToeBase
					{
						OFFSET 0.157640 -0.433110 2.322550
						CHANNELS 3 Zrotation Yrotation Xrotation
						End Site
						{
							OFFSET 0.000000 0.000000 0.000000
						}
					}
				}
			}
		}
	}
	JOINT RHipJoint
	{
		OFFSET 0.000000 0.000000 0.000000
		CHANNELS 3 Zrotation Yrotation Xrotation
		JOINT RightUpLeg
		{
			OFFSET -1.305520 -1.794630 0.839290
			CHANNELS 3 Zrotation Yrotation Xrotation
			JOINT RightLeg
			{
				OFFSET -2.542530 -6.985550 0.000000
				CHANNELS 3 Zrotation Yrotation Xrotation
				JOINT RightFoot
				{
					OFFSET -2.568260 -7.056230 0.000000
					CHANNELS 3 Zrotation Yrotation Xrotation
					JOINT RightToeBase
					{
						OFFSET -0.164730 -0.452590 2.363150
						CHANNELS 3 Zrotation Yrotation Xrotation
						End Site
						{
							OFFSET 0.000000 0.000000 0.000000
						}
					}
				}
			}
		}
	}
}
MOTION
Frames: 33
Frame Time: 0.008333
5.005461 18.151701 0.975370 25.595975 -83.250417 -27.438415 -10.132315 8.585125 4.693942 7.563372 22.228931 6.638865 -0.200032 0.871880 12.576375 2.058245 2.416143 40.935303 0.786600 -0.000000 -74.784400 11.980208 -6.214969 1.997633 -11.016478 -27.538657 16.173044 -0.494267 -0.955774 7.618387 -1.091263 4.976424 42.358679 4.099100 -0.000000 -84.947800
4.809152 18.365557 0.955338 25.291355 -83.292850 -27.643423 -10.086423 8.693630 4.958087 7.731441 21.337995 7.614503 -0.106404 0.849915 11.401951 2.147242 2.315823 42.779909 0.755800 -0.000000 -71.961400 11.964898 -6.294595 2.160906 -11.208105 -27.182499 16.781365 -0.568057 -0.952797 7.154238 -1.194576 5.699905 44.561330 4.799000 0.000000 -81.333800
4.622799 18.566819 0.936823 24.789715 -83.330086 -27.587545 -10.046531 8.752470 5.186882 7.757098 20.257918 8.315223 -0.004592 0.843368 10.828003 2.205279 2.513885 43.756454 0.925600 0.000000 -69.586300 11.936057 -6.329148 2.277627 -11.254681 -26.769052 17.106217 -0.646287 -0.958168 7.201675 -1.278698 5.925267 45.862801 5.074200 -0.000000 -78.452300
4.446608 18.754541 0.919367 24.141261 -83.355452 -27.323605 -10.013644 8.765116 5.375795 7.653482 19.041008 8.774067 0.102422 0.848897 10.772903 2.242270 2.979610 44.053950 1.279700 0.000000 -68.156400 11.900867 -6.322727 2.341923 -11.195385 -26.342804 17.201390 -0.728152 -0.972094 7.638925 -1.348804 5.663734 46.436863 4.925300 0.000001 -76.567400
4.280626 18.928051 0.902526 23.394023 -83.364544 -26.917005 -9.990273 8.736816 5.512077 7.476486 17.827250 9.009934 0.204109 0.863855 11.173968 2.261008 3.537925 43.823727 1.685500 -0.000000 -67.327800 11.866374 -6.279646 2.349780 -11.092240 -25.974423 17.123267 -0.808693 -0.992824 8.353344 -1.406302 5.036167 46.429787 4.454200 0.000000 -75.521300
4.124383 19.087034 0.886087 22.575788 -83.355686 -26.410536 -9.980090 8.674024 5.587223 7.282303 16.743044 9.051530 0.292211 0.885137 11.923167 2.266089 4.039365 43.257116 2.030500 -0.000000 -67.056600 11.836689 -6.205063 2.299631 -10.998303 -25.725151 16.929909 -0.882114 -1.017576 9.219639 -1.452801 4.177216 45.995751 3.782800 -0.000000 -75.195800
3.977101 19.231708 0.869800 21.736286 -83.328364 -25.864108 -9.984827 8.585268 5.598923 7.116807 15.900886 8.916186 0.360084 0.909755 12.906431 2.260271 4.364624 42.523659 2.230499 -0.000000 -67.189300 11.816821 -6.103767 2.193119 -10.970371 -25.663534 16.644497 -0.942762 -1.043056 10.160740 -1.486716 3.243276 45.238127 3.047000 -0.000000 -75.341601
3.837565 19.362806 0.853539 20.893523 -83.285544 -25.298434 -10.005880 8.478185 5.551084 7.008678 15.356817 8.630254 0.405948 0.934887 13.993920 2.247364 4.471673 41.774602 2.265200 -0.000000 -67.644500 11.807157 -5.981880 2.037507 -11.027900 -25.809085 16.293286 -0.987191 -1.066275 11.082831 -1.509032 2.317927 44.273721 2.322900 0.000001 -75.785200
3.704383 19.481473 0.837237 20.045520 -83.232666 -24.708735 -10.043747 8.358788 5.452153 6.970643 15.118784 8.224353 0.431173 0.957899 15.060638 2.231005 4.374260 41.118155 2.155500 0.000000 -68.275900 11.804983 -5.846122 1.844667 -11.158464 -26.140373 15.900919 -1.014204 -1.084618 11.889671 -1.523252 1.417369 43.220398 1.629900 -0.000000 -76.404800
3.576277 19.589260 0.820826 19.223526 -83.175612 -24.120277 -10.095873 8.231744 5.314916 6.990265 15.159142 7.724283 0.438173 0.976231 15.999508 2.214602 4.131731 40.618015 1.951400 -0.000000 -68.969399 11.809766 -5.700786 1.626957 -11.347103 -26.630621 15.465597 -1.024015 -1.095744 12.531231 -1.532206 0.541619 42.151463 0.970100 0.000000 -77.048901
3.452040 19.687119 0.804272 18.460039 -83.120514 -23.555498 -10.159067 8.100051 5.152145 7.043964 15.432432 7.150318 0.429418 0.987945 16.731894 2.200205 3.817167 40.289046 1.707899 -0.000000 -69.574501 11.820742 -5.549064 1.396675 -11.567593 -27.240331 14.976517 -1.017593 -1.097941 12.980288 -1.539017 -0.335076 41.112228 0.325000 0.000000 -77.553000
3.330567 19.775943 0.787701 17.790272 -83.073070 -23.034081 -10.230207 7.965154 4.976117 7.098910 15.884412 6.511013 0.407170 0.991565 17.206995 2.189083 3.513484 40.114554 1.482300 0.000000 -70.053701 11.837402 -5.393035 1.166099 -11.783403 -27.921233 14.409710 -0.996624 -1.089817 13.231162 -1.548031 -1.263381 40.128768 -0.342300 -0.000000 -77.865299
3.211543 19.856222 0.771354 17.227254 -83.037742 -22.560309 -10.307167 7.826132 4.794952 7.122136 16.461916 5.807157 0.373254 0.987021 17.406651 2.180700 3.293671 40.045452 1.323300 0.000000 -70.347100 11.858266 -5.233076 0.944022 -11.952572 -28.623975 13.740064 -0.962682 -1.071038 13.294963 -1.563252 -2.299108 39.200007 -1.071000 0.000000 -77.923800
3.094672 19.927660 0.755569 16.774098 -83.015965 -22.123000 -10.388433 7.681260 4.614322 7.080861 17.113167 5.030316 0.328849 0.975129 17.339869 2.173058 3.220065 40.011638 1.271700 -0.000000 -70.366400 11.881275 -5.069126 0.737136 -12.031766 -29.300978 12.940646 -0.916721 -1.041724 13.195792 -1.588046 -3.492334 38.300536 -1.894899 0.000000 -77.640101
2.980436 19.989817 0.740753 16.412684 -83.005849 -21.699246 -10.473266 7.526448 4.435438 6.947610 17.790800 4.169317 0.275229 0.957494 17.038910 2.164064 3.344176 39.941635 1.361400 0.000001 -70.211200 11.903976 -4.898570 0.546709 -11.985914 -29.917056 11.990499 -0.859982 -1.002362 12.966368 -1.626424 -4.884137 37.399706 -2.838600 0.000000 -77.142200
2.869340 20.041563 0.727302 16.103967 -83.002868 -21.246559 -10.561219 7.357268 4.257100 6.702970 18.453952 3.209096 0.212678 0.936320 16.558163 2.149468 3.684600 39.743414 1.602100 -0.000000 -69.612800 11.922224 -4.719221 0.371805 -11.787383 -30.444623 10.877091 -0.791346 -0.954170 12.648783 -1.677764 -6.464212 36.423661 -3.887401 -0.000000 -76.135300
2.762235 20.081686 0.715616 15.782933 -83.002196 -20.698333 -10.653060 7.166841 4.076985 6.333441 19.052336 2.144283 0.143606 0.912392 15.939301 2.129951 4.274004 39.383460 2.013100 -0.000000 -68.995800 11.930927 -4.528601 0.210770 -11.403153 -30.841721 9.610570 -0.713674 -0.896830 12.236589 -1.750516 -8.276411 35.383910 -5.065400 0.000000 -75.133100
2.660042 20.108964 0.705791 15.403203 -82.993245 -20.024114 -10.747029 6.950287 3.886439 5.847201 19.585057 0.963638 0.065977 0.887962 15.270780 2.099295 5.045294 38.763221 2.538300 -0.000000 -67.837200 11.927140 -4.321717 0.052041 -10.862175 -31.143776 8.200204 -0.622314 -0.832331 11.798095 -1.835804 -10.181147 34.170280 -6.259300 0.000000 -73.651400
2.563484 20.122532 0.698038 14.877164 -82.970821 -19.144613 -10.843889 6.700756 3.681795 5.252603 20.010789 -0.315334 -0.016437 0.861994 14.573090 2.062722 5.997040 37.915528 3.168900 -0.000000 -66.819000 11.905501 -4.098170 -0.109034 -10.154054 -31.320084 6.693991 -0.520796 -0.760024 11.287128 -1.942288 -12.188162 32.845005 -7.470900 -0.000000 -72.330800
2.473196 20.121570 0.692148 14.178719 -82.927008 -18.059744 -10.940549 6.416137 3.453524 4.575237 20.360116 -1.690023 -0.106441 0.835456 13.916124 2.016881 7.013093 36.799640 3.812200 0.000000 -65.652800 11.865925 -3.855140 -0.285672 -9.333772 -31.432038 5.120897 -0.404467 -0.682003 10.746762 -2.058422 -14.121035 31.356597 -8.565200 0.000001 -70.971400
2.389093 20.106188 0.687866 13.281998 -82.858551 -16.761372 -11.034919 6.096360 3.197225 3.838950 20.650671 -3.144353 -0.204366 0.807925 13.324751 1.963871 8.007302 35.454112 4.401600 0.000000 -64.534200 11.808425 -3.594465 -0.485477 -8.436143 -31.513388 3.519722 -0.271525 -0.599703 10.169224 -2.177121 -15.869456 29.739203 -9.465300 -0.000000 -69.753800
2.311092 20.076502 0.684890 12.195531 -82.767364 -15.277023 -11.124213 5.744393 2.912043 3.060859 20.896748 -4.655780 -0.309679 0.779231 12.796742 1.907552 8.913917 33.955368 4.893101 0.000000 -63.825800 11.735308 -3.319112 -0.712926 -7.491933 -31.589753 1.920628 -0.121585 -0.514940 9.542511 -2.289777 -17.343440 28.056363 -10.121701 -0.000000 -68.926900
2.238145 20.033419 0.682784 10.940031 -82.655085 -13.647886 -11.205997 5.367900 2.591888 2.270046 21.198299 -6.241924 -0.430543 0.751879 12.394733 1.838542 9.549615 32.289858 5.165700 -0.000001 -62.913400 11.649385 -3.035009 -0.973865 -6.550138 -31.755211 0.320584 0.055639 -0.432658 8.926206 -2.368361 -18.330992 26.288830 -10.400400 -0.000001 -68.132600
2.169342 19.978115 0.681267 9.566135 -82.533296 -11.925361 -11.278334 4.974467 2.244448 1.463192 21.553636 -7.888233 -0.564839 0.726239 12.081130 1.761709 9.907578 30.593792 5.239001 -0.000000 -62.456000 11.554302 -2.747962 -1.261161 -5.610097 -31.996772 -1.280618 0.256993 -0.354709 8.299649 -2.406580 -18.837045 24.568728 -10.353000 0.000000 -67.842500
2.103163 19.912219 0.679965 8.163621 -82.414285 -10.192347 -11.338156 4.575282 1.881907 0.628801 21.954132 -9.585175 -0.711333 0.703111 11.821187 1.678383 9.985352 28.975198 5.138800 0.000000 -62.548300 11.454339 -2.462816 -1.566629 -4.679232 -32.320999 -2.909153 0.483254 -0.284768 7.689002 -2.390397 -18.816392 22.971081 -9.998800 0.000000 -68.050000
2.038239 19.836302 0.678808 6.707782 -82.309761 -8.434521 -11.387948 4.177507 1.500555 -0.212976 22.489287 -11.361639 -0.875233 0.687039 11.673075 1.578173 9.663481 27.453204 4.815500 0.000000 -62.979400 11.348676 -2.188431 -1.884545 -3.758418 -32.759671 -4.584773 0.738192 -0.229111 7.148371 -2.302978 -18.207029 21.548228 -9.349800 -0.000000 -68.649500
1.973073 19.751620 0.677491 5.329105 -82.236270 -6.759449 -11.423510 3.792351 1.123457 -1.095385 23.065379 -13.188421 -1.048346 0.677133 11.562680 1.469365 9.059508 26.155946 4.372801 -0.000000 -63.896500 11.241684 -1.925334 -2.198997 -2.836649 -33.259132 -6.349069 1.014298 -0.191745 6.709177 -2.146757 -17.070245 20.384476 -8.497200 0.000000 -69.659000
1.906286 19.658306 0.676033 4.010436 -82.207071 -5.148075 -11.446988 3.424911 0.755269 -2.006070 23.687342 -15.064072 -1.227877 0.675820 11.512405 1.350591 8.170621 25.110131 3.823500 -0.000000 -65.132700 11.132018 -1.679686 -2.497834 -1.901034 -33.781095 -8.209137 1.304612 -0.177871 6.406801 -1.926925 -15.462418 19.534329 -7.508200 0.000000 -70.968800
1.836551 19.556837 0.674292 2.805257 -82.234714 -3.641581 -11.457943 3.081001 0.410410 -2.944381 24.280484 -16.952611 -1.404252 0.682464 11.495017 1.229910 7.100954 24.365900 3.231900 -0.000000 -66.622200 11.021427 -1.452646 -2.766561 -0.948406 -34.250934 -10.166822 1.594773 -0.191045 6.268761 -1.661675 -13.498713 19.038812 -6.457299 -0.000000 -72.489900
1.762372 19.446675 0.672210 1.698191 -82.327324 -2.231459 -11.458825 2.763840 0.094392 -3.879938 24.812071 -18.808758 -1.570842 0.697236 11.522525 1.110520 5.903125 23.890059 2.616600 0.000000 -68.000600 10.911172 -1.248806 -2.994151 0.008431 -34.603146 -12.171586 1.869597 -0.231703 6.288555 -1.372405 -11.301354 18.916591 -5.394500 0.000000 -74.070300
1.683080 19.327224 0.669537 0.751465 -82.489795 -0.969220 -11.450903 2.474821 -0.178070 -4.790368 25.169570 -20.565215 -1.712243 0.716231 11.550842 1.007589 4.761997 23.713809 2.061000 -0.000000 -69.608300 10.805674 -1.064928 -3.168505 0.942199 -34.736065 -14.182856 2.107928 -0.298015 6.472153 -1.090056 -9.050677 19.148306 -4.374100 -0.000000 -75.626100
1.597532 19.197666 0.666094 -0.080157 -82.718612 0.161704 -11.439205 2.213408 -0.412210 -5.614260 25.358931 -22.155500 -1.825371 0.739502 11.625363 0.919607 3.701548 23.702403 1.555500 -0.000001 -70.661500 10.709297 -0.904021 -3.290677 1.797632 -34.623523 -16.084606 2.297553 -0.384112 6.780008 -0.833390 -6.864741 19.688106 -3.410799 0.000000 -76.983400
1.505368 19.057067 0.661621 -0.774354 -83.004006 1.132192 -11.426584 1.977719 -0.602929 -6.310775 25.318999 -23.516955 -1.900328 0.763798 11.745110 0.855118 2.867082 23.791219 1.161700 -0.000000 -71.458600 10.627422 -0.762024 -3.360439 2.521413 -34.222787 -17.799809 2.426215 -0.483336 7.202666 -0.622069 -4.893956 20.444929 -2.538500 0.000000 -78.059600
